PathFileType	4	(X/Y/Z)	C:/Users/beibeiliu/ov580/test_trc\sequence.11_training_dense_right.trc
DataRate	CameraRate	NumFrames	NumMarkers	Units	OrigDataRate	OrigDataStartFrame	OrigNumFrames
120	120	8	19	mm	120	50	398
Frame#	Time	ThumbCMC			ThumbMCP			ThumbIP			ThumbTip			IndexMCP			IndexPIP			IndexTip			MiddleMCP			MiddlePIP			MiddleTip			RingMCP			RingPIP			RingTip			PinkyMCP			PinkyPIP			PinkyTip			BackHand1			BackHand2			BackHand3	
		X0	Y0	Z0	X1	Y1	Z1	X2	Y2	Z2	X3	Y3	Z3	X4	Y4	Z4	X5	Y5	Z5	X6	Y6	Z6	X7	Y7	Z7	X8	Y8	Z8	X9	Y9	Z9	X10	Y10	Z10	X11	Y11	Z11	X12	Y12	Z12	X13	Y13	Z13	X14	Y14	Z14	X15	Y15	Z15	X16	Y16	Z16	X17	Y17	Z17	X18	Y18	Z18	
49	0.408333	228.34	20.5597	21.722	219.4	48.7811	4.05012	206.811	61.5861	-7.25817	185.642	65.7421	-19.0023	208.264	24.6933	-39.446	198.645	38.7314	-60.3631	189.017	52.2401	-75.9385	187.796	32.7092	-28.9851	177.323	56.2672	-8.62031	193.655	41.9278	11.7096	169.192	30.8019	-15.4614	175.476	49.0712	2.10141	190.934	29.9204	21.7728	162.58	20.4349	-5.54699	165.446	38.068	12.8009	185.501	28.5407	23.5008	190.157	-13.1991	2.91198	201.536	-20.6177	25.8132	220.687	-9.39946	10.0363	
50	0.416667	232.035	25.5115	20.95	222.983	53.6813	8.59307	208.719	64.399	-4.6166	187.017	71.0998	-17.9902	211.678	30.5458	-41.1888	202.959	44.3661	-57.916	192.916	58.439	-71.2082	187.028	41.8508	-28.6543	182.445	61.6637	-10.8343	192.56	42.3043	14.5197	170.355	34.4179	-14.3541	175.22	51.6186	5.04135	190.565	31.6894	23.6087	163.319	26.2202	-3.70649	171.346	43.1156	11.6035	184.367	27.7256	27.0842	193.278	-7.87424	-0.422648	202.801	-19.8136	23.1448	220.307	-6.28535	10.9749	
51	0.425	235.274	26.7705	25.235	223.433	53.8134	8.40157	209.635	66.0322	-1.8996	189.369	74.2719	-14.0716	211.543	33.4244	-37.1142	202.786	48.842	-52.3843	195.898	68.1903	-68.0606	189.461	42.1877	-25.9356	184.257	66.1799	-8.67572	200.832	46.9622	15.3253	171.564	38.0768	-12.1334	181.835	56.0088	9.67362	193.211	34.5193	24.908	164.667	32.7933	-2.50385	168.706	45.7128	15.1591	189.971	29.3494	27.7981	192.81	-4.49092	-0.39751	199.378	-18.4971	24.6925	222.966	-3.80861	8.79338	
52	0.433333	236.183	28.0036	23.4238	226.839	58.5533	12.2401	210.008	69.8056	-0.186177	192.654	80.9749	-8.67595	209.893	41.9884	-38.3751	204.746	59.1062	-53.4635	190.998	77.506	-64.7568	187.873	50.7031	-24.2102	188.449	71.1142	-4.67244	199.452	48.0608	17.2444	175.734	47.3146	-10.4392	182.12	59.549	11.6201	195.666	37.594	26.1221	166.355	36.7054	-1.26742	174.216	51.1927	16.8523	191.274	35.2716	28.4571	190.657	-1.81164	0.711621	203.571	-14.2569	25.8663	220.008	-0.0690678	8.67493	
53	0.441667	236.365	30.169	24.4712	229.193	62.3914	15.0879	213.248	75.2683	5.45794	189.646	85.5836	-5.5251	210.75	45.4961	-34.3879	201.13	61.5708	-47.1205	190.439	81.2075	-56.7911	191.339	54.867	-21.6658	187.61	74.1789	3.5845	199.833	51.1741	20.3897	173.538	52.1698	-6.86676	180.984	63.0879	15.2796	200.046	41.2918	25.5893	164.295	39.8364	2.0084	171.026	53.4675	21.2813	192.569	40.4214	30.12	191.788	0.850284	2.46087	203.045	-11.724	23.4019	223.474	3.06878	6.36303	
54	0.45	233.456	33.3224	25.8385	226.019	62.9002	18.7779	209.228	79.3073	6.06803	191.114	88.236	1.0391	205.898	52.9472	-35.0081	197.043	71.6954	-47.2648	187.007	87.8483	-53.5735	187.68	60.7424	-18.655	186.199	77.1053	7.03417	201.569	57.7797	22.0782	175.126	55.7075	-4.72326	178.172	65.0043	18.7001	196.293	46.6219	29.4577	164.121	45.7055	4.36892	173.86	55.4946	23.623	192.691	36.9687	33.0296	193.893	7.94578	0.627705	203.145	-8.82105	23.8054	223.237	8.82342	4.11656	
55	0.458333	230.936	39.3336	26.2841	219.68	68.3019	17.5038	205.384	83.1784	10.3877	182.122	89.1964	1.63921	205.443	58.0075	-32.4438	191.47	73.4015	-43.3053	180.617	89.7193	-50.6804	183.943	61.8396	-17.3489	179.454	79.7715	5.35103	196.717	58.2857	24.8391	169.551	52.2919	-4.12232	179.301	67.7462	19.1178	192.211	47.0982	32.6606	162.779	42.6727	3.95043	168.705	55.5861	26.011	190.976	43.6527	31.8187	193.918	9.02243	0.507044	206.214	-4.87145	24.7865	225.957	15.8259	6.09836	
56	0.466667	229.057	46.9863	27.6616	213.624	75.3889	20.8523	196.945	86.2958	9.72834	176.626	93.4735	1.97318	200.699	61.1608	-30.9416	190.995	75.696	-41.5718	174.48	92.7994	-52.0212	180.822	62.0771	-18.4254	168.878	79.7964	0.839444	186.053	68.1936	26.5476	170.028	52.7693	-6.03929	167.199	66.8173	19.0439	185.07	51.7135	33.0362	162.369	42.2021	2.55824	162.758	54.9515	24.2349	184.051	42.4536	33.7722	196.377	10.8789	4.05539	210.608	-0.87516	23.9991	224.211	20.991	8.15408	
